<svg xmlns="http://www.w3.org/2000/svg" fill="none" viewBox="0 0 72 21">
  <rect width="72" height="21" fill="#F9F9F9" rx="10.5"/>
  <path fill="#000" d="M16.5415 9c-.2698-1.4915-1.463-2.3722-2.9261-2.3722-1.8608 0-3.2102 1.4347-3.2102 3.7358 0 2.3012 1.3494 3.7358 3.2102 3.7358 1.4631 0 2.6563-.8806 2.9261-2.3721h-.8806c-.2131 1.0085-1.0796 1.5483-2.0455 1.5483-1.321 0-2.3579-1.0228-2.3579-2.912s1.0369-2.9119 2.3579-2.9119c.9659 0 1.8324.5398 2.0455 1.5483h.8806Zm3.5254 5.1136c1.4773 0 2.4716-1.1221 2.4716-2.8125 0-1.7045-.9943-2.8267-2.4716-2.8267-1.4772 0-2.4716 1.1222-2.4716 2.8267 0 1.6904.9944 2.8125 2.4716 2.8125Zm0-.7528c-1.1221 0-1.6335-.9659-1.6335-2.0597 0-1.0937.5114-2.0738 1.6335-2.0738 1.1222 0 1.6336.9801 1.6336 2.0738 0 1.0938-.5114 2.0597-1.6336 2.0597Zm4.1513-4.8153h-.9659l1.733 2.7272L23.2523 14h.9659l1.3068-2.1165L26.8319 14h.9659l-1.7614-2.7273 1.7614-2.7272h-.9659l-1.3069 2.2301-1.3068-2.2302Zm4.7754 7.5h.8381v-2.8836h.071c.1847.2983.5398.9517 1.5909.9517 1.3636 0 2.3153-1.0937 2.3153-2.8267 0-1.7187-.9517-2.8125-2.3295-2.8125-1.0653 0-1.392.6534-1.5767.9375h-.0994v-.8664h-.8097v7.5Zm.8239-4.7728c0-1.2216.5397-2.0454 1.5625-2.0454 1.0653 0 1.5909.8949 1.5909 2.0454 0 1.1648-.5398 2.0881-1.5909 2.0881-1.0086 0-1.5625-.8523-1.5625-2.0881Zm6.875 2.8551c.9517 0 1.4488-.5113 1.6193-.8664h.0426V14h.8381v-3.5938c0-1.7329-1.3211-1.9318-2.0171-1.9318-.8238 0-1.7613.2841-2.1875 1.2784l.7955.2841c.1846-.3977.6214-.8238 1.4204-.8238.7706 0 1.1506.4083 1.1506 1.1079v.0284c0 .4049-.4119.3694-1.4062.4972-1.0121.1314-2.1165.3551-2.1165 1.6051 0 1.0653.8238 1.6761 1.8608 1.6761Zm.1278-.7528c-.6676 0-1.1506-.2983-1.1506-.8807 0-.6392.5824-.8381 1.2358-.9233.3552-.0426 1.3069-.142 1.4489-.3125v.7671c0 .6818-.5398 1.3494-1.5341 1.3494Zm4.7399-4.8295h-.8381V14h.8381v-2.3295h2.6136V14h.8381V8.5455h-.8381v2.3437h-2.6136V8.5454Zm5.8203 4.2187V8.5454h-.8381V14h.9801l2.6137-4.2188V14h.8381V8.5455h-.966l-2.6278 4.2187Zm4.3865-3.4375h1.804V14h.8381V9.3267h1.7898v-.7813H51.767v.7813Zm6.4924 1.1932V8.5455h-.8381V14h2.287c1.2784 0 1.9744-.7812 1.9744-1.7614 0-.9943-.696-1.7187-1.9744-1.7187h-1.4489Zm0 .7812h1.4489c.664 0 1.1363.4049 1.1363.9801 0 .5505-.4723.9376-1.1363.9376h-1.4489v-1.9177Z"/>
</svg>
